<svg width="24" height="24" viewBox="0 0 24 24" fill="none" xmlns="http://www.w3.org/2000/svg">
<path fill-rule="evenodd" clip-rule="evenodd" d="M11.8509 4.9247C14.0162 2.75947 17.5267 2.75948 19.6919 4.9247C21.8571 7.08993 21.8571 10.6005 19.6919 12.7657L11.9911 20.4665C11.6786 20.7789 11.1721 20.7789 10.8597 20.4665C10.5473 20.154 10.5473 19.6475 10.8597 19.3351L18.5605 11.6343C20.1009 10.0939 20.1009 7.59646 18.5605 6.05607C17.0201 4.51569 14.5227 4.51568 12.9823 6.05608L4.92108 14.1172C4.92107 14.1172 4.92108 14.1172 4.92108 14.1172C3.9575 15.0809 3.95749 16.6431 4.92108 17.6067C5.88466 18.5703 7.44692 18.5703 8.41051 17.6067L15.643 10.3742C15.9898 10.0275 15.9898 9.46518 15.643 9.11839C15.2962 8.77162 14.7339 8.77162 14.3871 9.11839L7.51506 15.9905C7.20264 16.3029 6.69611 16.3029 6.38369 15.9905C6.07127 15.6781 6.07127 15.1716 6.38369 14.8591L13.2558 7.98705C13.2557 7.98705 13.2558 7.98705 13.2558 7.98705C14.2274 7.01542 15.8028 7.01541 16.7744 7.98705C17.746 8.95867 17.746 10.534 16.7744 11.5056L9.54188 18.7381C7.95346 20.3265 5.37812 20.3265 3.78969 18.7381C2.20129 17.1496 2.20129 14.5743 3.78969 12.9859L11.8509 4.9247Z" fill="#333333"/>
</svg>
