<svg width="11" height="15" viewBox="0 0 11 15" fill="none" xmlns="http://www.w3.org/2000/svg">
<path d="M9.82864 6.08436H8.97422V3.72584C8.97422 1.89646 7.70834 0.263936 5.95779 0.0305815C3.84027 -0.251749 2.02671 1.45856 2.02671 3.60004V6.08436H1.17228C0.525442 6.08436 0 6.62789 0 7.29915V13.786C0 14.4563 0.524516 15.0008 1.17228 15.0008H9.82772C10.4746 15.0008 11 14.4573 11 13.786V7.29915C11 6.62885 10.4764 6.08436 9.82864 6.08436ZM5.50093 11.9797C4.73454 11.9797 4.11365 11.3363 4.11365 10.5421C4.11365 9.74793 4.73454 9.10453 5.50093 9.10453C6.26731 9.10453 6.88821 9.74793 6.88821 10.5421C6.88821 11.3363 6.26731 11.9797 5.50093 11.9797ZM7.19031 6.08436H3.81247V3.60004C3.81247 2.63494 4.57051 1.8494 5.50185 1.8494C6.43319 1.8494 7.19124 2.63494 7.19124 3.60004L7.19031 6.08436Z" fill="#333333"/>
</svg>
