<svg width="25" height="24" viewBox="0 0 25 24" fill="none" xmlns="http://www.w3.org/2000/svg">
<g clip-path="url(#clip0_799_4305)">
<path d="M17.9688 7.125C18.6162 7.125 19.1406 6.62156 19.1406 6V3C19.1406 2.37844 18.6162 1.875 17.9688 1.875C17.3213 1.875 16.7969 2.37844 16.7969 3V6C16.7969 6.62156 17.3213 7.125 17.9688 7.125Z" fill="#212121"/>
<path d="M7.03125 7.125C7.67871 7.125 8.20312 6.62156 8.20312 6V3C8.20312 2.37844 7.67871 1.875 7.03125 1.875C6.38379 1.875 5.85938 2.37844 5.85938 3V6C5.85938 6.62156 6.38379 7.125 7.03125 7.125Z" fill="#212121"/>
<path d="M4.29688 4.5H3.51562C2.65234 4.5 1.95312 5.17125 1.95312 6V20.625C1.95312 21.4538 2.65234 22.125 3.51562 22.125H21.4844C22.3477 22.125 23.0469 21.4538 23.0469 20.625V6C23.0469 5.17125 22.3477 4.5 21.4844 4.5H19.1406" stroke="#212121" stroke-width="1.2" stroke-linecap="round" stroke-linejoin="round"/>
<path d="M15.2344 4.5H8.20312" stroke="#212121" stroke-width="1.2" stroke-linecap="round" stroke-linejoin="round"/>
<path d="M23.0469 9H1.95312" stroke="#212121" stroke-width="1.2" stroke-linecap="round" stroke-linejoin="round"/>
<path d="M18.3594 13.5H6.64062" stroke="#212121" stroke-width="1.2" stroke-linecap="round" stroke-linejoin="round"/>
<path d="M18.3594 16.875H6.64062" stroke="#212121" stroke-width="1.2" stroke-linecap="round" stroke-linejoin="round"/>
</g>
<defs>
<clipPath id="clip0_799_4305">
<rect width="25" height="24" fill="white" transform="matrix(-1 0 0 1 25 0)"/>
</clipPath>
</defs>
</svg>
