<svg width="26" height="26" viewBox="0 0 26 26" fill="none" xmlns="http://www.w3.org/2000/svg">
<path d="M24.9445 12.7719C24.9445 19.4947 19.4951 24.9442 12.7723 24.9442C6.04941 24.9442 0.599976 19.4947 0.599976 12.7719C0.599976 6.04905 6.04941 0.599609 12.7723 0.599609C19.4951 0.599609 24.9445 6.04905 24.9445 12.7719Z" stroke="black" stroke-width="1.2" stroke-linecap="round" stroke-linejoin="round"/>
<path d="M15.9595 10.2499C15.9595 8.85476 14.8285 7.72461 13.4343 7.72461H12.0794C10.6852 7.72461 9.55505 8.85476 9.55505 10.249C9.55505 11.6431 10.6852 12.7733 12.0794 12.7733H13.4661C14.8603 12.7733 15.9904 13.9034 15.9904 15.2976C15.9904 16.6918 14.8603 17.822 13.4661 17.822H12.0551C10.6861 17.822 9.57565 16.7115 9.57565 15.3426" stroke="black" stroke-width="1.2" stroke-linecap="round" stroke-linejoin="round"/>
<path d="M12.7723 4.81934V7.72289" stroke="black" stroke-width="1.2" stroke-linecap="round" stroke-linejoin="round"/>
<path d="M12.7723 17.8193V20.7229" stroke="black" stroke-width="1.2" stroke-linecap="round" stroke-linejoin="round"/>
</svg>
