<svg width="18" height="18" viewBox="0 0 18 18" fill="none" xmlns="http://www.w3.org/2000/svg">
<path fill-rule="evenodd" clip-rule="evenodd" d="M9.03418 1.94922C11.5385 1.94922 13.7397 3.24263 15 5.19434V3C15 2.66876 15.2684 2.39963 15.5996 2.39941C15.931 2.39941 16.2002 2.66863 16.2002 3V6.75C16.2 7.08121 15.9309 7.34961 15.5996 7.34961H11.8496C11.5185 7.3494 11.2502 7.08108 11.25 6.75C11.25 6.41876 11.5184 6.14962 11.8496 6.14941H14.1758C13.1692 4.35994 11.2442 3.14941 9.03418 3.14941C5.78027 3.14957 3.14844 5.77239 3.14844 9C3.14866 12.2274 5.78041 14.8495 9.03418 14.8496C11.9871 14.8496 14.4301 12.6888 14.8555 9.87695C14.9052 9.54955 15.2106 9.32448 15.5381 9.37402C15.8656 9.42364 16.0905 9.72908 16.041 10.0566C15.5275 13.4514 12.5844 16.0498 9.03418 16.0498C5.12401 16.0496 1.94847 12.8965 1.94824 9C1.94824 5.10332 5.12387 1.94937 9.03418 1.94922Z" fill="white"/>
</svg>
