<svg width="18" height="18" viewBox="0 0 18 18" fill="none" xmlns="http://www.w3.org/2000/svg">
<path d="M8.17383 1.80078C11.6946 1.80078 14.5488 4.65594 14.5488 8.17676C14.5487 9.72048 13.999 11.1353 13.0859 12.2383L15.5742 14.7266C15.8085 14.9609 15.8085 15.3409 15.5742 15.5752C15.34 15.8093 14.9608 15.8093 14.7266 15.5752L12.2383 13.0869C11.1349 14.0012 9.71875 14.5508 8.17383 14.5508C4.65318 14.5508 1.79909 11.6973 1.79883 8.17676C1.79883 4.65594 4.65301 1.80078 8.17383 1.80078ZM8.17383 3.00098C5.31575 3.00098 2.99902 5.31868 2.99902 8.17676C2.99929 11.0346 5.31592 13.3516 8.17383 13.3516C9.53862 13.3516 10.7785 12.8213 11.7031 11.958C11.7307 11.9052 11.7652 11.8549 11.8096 11.8105C11.8541 11.766 11.905 11.7317 11.958 11.7041C12.8201 10.7798 13.3485 9.54038 13.3486 8.17676C13.3486 5.31868 11.0319 3.00098 8.17383 3.00098Z" fill="white"/>
</svg>
