<svg width="39" height="39" viewBox="0 0 39 39" fill="none" xmlns="http://www.w3.org/2000/svg">
<path d="M19.499 9C20.0145 9 20.4326 9.41813 20.4326 9.93359V18.5674H29.0664C29.5818 18.5674 29.9999 18.9846 30 19.5C30 20.0155 29.5819 20.4336 29.0664 20.4336H20.4326V29.0664C20.4326 29.5819 20.0145 30 19.499 30C18.9836 30 18.5654 29.5819 18.5654 29.0664V20.4336H9.93359C9.41813 20.4336 9 20.0155 9 19.5C9.00012 18.9846 9.4182 18.5674 9.93359 18.5674H18.5654V9.93359C18.5654 9.41815 18.9836 9.00004 19.499 9Z" fill="#A28362"/>
</svg>
