<svg width="60" height="60" viewBox="0 0 60 60" fill="none" xmlns="http://www.w3.org/2000/svg">
<path d="M27.417 5.08887C30.1332 5.11609 32.845 6.04497 34.6094 7.87695C36.369 9.70405 37.1723 12.4162 36.1172 15.9873C36.6697 16.4797 36.9973 17.039 37.0752 17.6279C37.1553 18.2349 36.9701 18.8581 36.5234 19.4482C35.8027 20.4 35.2356 21.4762 34.6846 22.5264L34.5068 22.9424C33.5842 24.9955 32.1123 26.6276 30.3086 27.4863C28.4103 28.3901 26.1551 28.4306 23.8066 27.2217C23.5764 27.9837 23.1999 28.5636 22.7314 29.0195C24.4103 30.4588 25.7399 31.0601 26.8408 31.1934C27.957 31.3284 28.8531 30.985 29.6582 30.5195C30.0621 30.286 30.4398 30.0235 30.8135 29.7744C31.1852 29.5266 31.5529 29.2928 31.9277 29.123C32.3034 28.9529 32.6903 28.845 33.1025 28.8545C33.4974 28.8636 33.9084 28.9813 34.3486 29.2412C37.0936 27.0333 40.5005 26.1806 43.4219 26.7891C46.3671 27.4026 48.8119 29.5006 49.5752 33.1689L49.6406 33.5225C50.2289 37.1188 48.1963 39.8598 46.5547 42.6611C48.0463 44.5981 47.5125 47.0092 46.2197 48.4736C45.5665 49.2136 44.7117 49.7212 43.8135 49.8027C42.9346 49.8824 42.0286 49.552 41.2451 48.6602C36.9613 52.0905 34.3745 55.1329 28.2275 54.8984V54.8975C26.8403 54.8908 25.5166 54.7826 24.2061 54.6787C23.0572 54.5876 21.918 54.5012 20.75 54.4902H20.2471C18.4151 54.4908 15.8747 54.4644 13.8193 53.8457C12.7911 53.5361 11.8745 53.0759 11.2285 52.3877C10.5805 51.6973 10.2111 50.7845 10.2656 49.5869L10.2568 43.7305C10.2573 41.7773 10.2603 39.8183 10.2637 37.8389C10.2683 35.2292 11.4823 33.0874 13.7676 31.6514L13.7715 31.6494C15.4227 30.7154 17.244 30.1288 19.0029 29.4814L19.0078 29.4795C19.9213 29.195 20.7364 28.9103 21.374 28.4531C21.9939 28.0086 22.4478 27.3991 22.6523 26.458C21.3159 25.4111 20.5986 23.7977 19.8291 22.415L19.8232 22.4033L19.917 22.3662L19.8242 22.4023C19.6303 21.9065 19.2919 21.3727 18.9268 20.8135C18.564 20.258 18.1743 19.6787 17.8887 19.1025C17.6031 18.5265 17.4152 17.9404 17.4648 17.3711C17.5136 16.8124 17.791 16.2846 18.3975 15.8057C17.449 12.2162 18.3326 9.52174 20.1445 7.73145C21.962 5.93575 24.7007 5.0617 27.417 5.08887ZM31.1465 34.8125C26.8094 38.8753 24.6431 42.6861 24.166 47.0293C24.6621 47.1624 25.1473 47.3504 25.6133 47.5566L26.0986 47.7793L26.1016 47.7812H26.1006C26.6475 48.0589 27.1102 48.1484 27.5332 48.1318C27.9579 48.1151 28.3505 47.991 28.7598 47.8291C29.5236 47.527 30.3446 47.0911 31.4902 47.0596H31.7236C31.9859 47.0567 32.1968 47.1381 32.334 47.2734C32.472 47.4097 32.5302 47.5958 32.4902 47.7803C32.4095 48.1525 31.9606 48.4489 31.1719 48.4102C30.5867 48.4095 30.0765 48.6283 29.5693 48.8643C29.0956 49.0847 28.6172 49.3216 28.1035 49.375C28.101 49.4143 28.0971 49.4675 28.0938 49.5342C28.0873 49.6638 28.0796 49.8377 28.0713 50.041C28.0546 50.4478 28.0349 50.9709 28.0137 51.4961C27.9925 52.021 27.9699 52.5475 27.9482 52.958C27.9374 53.1632 27.9263 53.34 27.916 53.4736C27.9117 53.5293 27.9066 53.5778 27.9023 53.6182C30.6459 53.6487 33.3638 53.316 35.5762 51.5391L35.5781 51.5371C35.9046 51.2863 36.2292 51.0317 36.5537 50.7754C36.4577 50.6487 36.3697 50.5232 36.2891 50.4111C36.1894 50.2726 36.0965 50.1542 35.9912 50.0645C35.8876 49.9763 35.7728 49.9157 35.6299 49.8936C35.4861 49.8713 35.3059 49.8855 35.0703 49.96L35.0713 49.9609C34.4634 50.1853 33.9246 50.1884 33.4082 50.1436C32.8877 50.0984 32.409 50.007 31.8828 50.0312C31.6733 50.0512 31.5016 49.9887 31.3789 49.875C31.258 49.7628 31.1901 49.6071 31.1758 49.4502C31.1615 49.2933 31.1998 49.128 31.2988 48.9971C31.3991 48.8647 31.557 48.774 31.7656 48.7588L31.9395 48.7471C32.3428 48.7302 32.7389 48.7868 33.1172 48.832C33.5184 48.88 33.9013 48.914 34.2764 48.8486C33.703 46.5144 32.9853 44.204 32.373 41.8506C31.7716 39.5386 31.2788 37.2013 31.1465 34.8125ZM34.3828 44.1865C34.786 45.6709 35.1938 47.1243 35.5898 48.6201C36.4657 48.6647 37.2194 49.178 37.5625 49.9717C38.6211 49.1212 39.6465 48.2784 40.7002 47.4287C40.647 47.0207 40.7686 46.5941 40.9014 46.1787C41.0434 45.7344 41.198 45.2993 41.2109 44.8672V44.8535L41.3105 44.8672L41.2119 44.8535C41.225 44.7557 41.239 44.6564 41.2539 44.5566C40.1016 44.6043 38.9476 44.535 37.7988 44.4414C36.6535 44.3481 35.5157 44.2341 34.3828 44.1865ZM11.6006 49.5859H11.5996C11.5707 50.5519 11.9046 51.2464 12.4629 51.7529C13.0253 52.2632 13.8233 52.5885 14.7305 52.7969C16.5461 53.2139 18.7477 53.1525 20.2666 53.2119L21.0664 53.2188C22.8981 53.2569 24.7543 53.4491 26.582 53.5703C26.5817 53.5582 26.5805 53.5458 26.5811 53.5332L26.7715 49.3477C26.1734 49.2324 25.593 48.9645 25.0215 48.7119C24.4164 48.4445 23.8177 48.195 23.1885 48.1357H23.1855C21.7938 47.9709 20.7753 47.8501 20.0107 47.709C19.2469 47.568 18.724 47.4047 18.3281 47.1484C17.8537 46.8413 17.6205 46.4517 17.5127 45.9541C17.4068 45.4652 17.4216 44.8673 17.4385 44.1436C17.452 43.5772 17.4687 42.8748 17.4385 42.0322L17.4023 41.707C17.3907 41.59 17.3838 41.4635 17.4004 41.333C17.4344 41.0659 17.5625 40.7953 17.8984 40.5439L17.9004 40.543C18.0705 40.4204 18.2525 40.3908 18.418 40.4277C18.5811 40.4642 18.7225 40.5642 18.8193 40.6914C18.9159 40.8184 18.9737 40.9789 18.959 41.1416C18.9454 41.291 18.8707 41.4326 18.7285 41.5439C18.8482 42.6639 18.8064 43.5237 18.7656 44.1895C18.7448 44.529 18.7252 44.8133 18.7266 45.0576C18.7279 45.3016 18.7504 45.4967 18.8105 45.6582C18.9261 45.9687 19.1922 46.1864 19.8271 46.3633C20.4507 46.5369 21.4039 46.6628 22.8545 46.8086C23.7007 40.5236 27.5312 35.8403 31.3633 33.0723C31.6436 32.0484 32.2098 31.0574 33.2168 30.1387C33.0873 30.0886 32.9922 30.0679 32.8975 30.0771C32.8023 30.0865 32.6973 30.1275 32.5527 30.2217L32.3945 30.334C30.387 31.8571 28.6601 32.5736 26.9404 32.4717C25.2366 32.3707 23.5629 31.4665 21.6494 29.8027C20.4986 30.3614 19.263 30.7774 18.0488 31.2051C16.8122 31.6407 15.5965 32.0893 14.499 32.7207L14.5 32.7217C12.5753 33.9307 11.6022 35.6502 11.5977 37.8408C11.5909 41.7988 11.5859 45.675 11.6006 49.583V49.5859ZM45.5342 43.5293C44.5737 43.8559 43.6177 44.2323 42.626 44.3896C42.5997 44.5528 42.5768 44.7174 42.5547 44.8838C42.5296 45.0727 42.5045 45.2641 42.4736 45.4551C42.4117 45.8375 42.3254 46.2233 42.165 46.5996L42.1631 46.6055C41.8664 47.2002 42.117 47.86 42.6289 48.2354C43.1356 48.6068 43.8894 48.689 44.583 48.1152L44.6113 48.0928H44.6182C45.4497 47.5578 45.943 46.8562 46.0957 46.0693C46.2463 45.2933 46.0662 44.4225 45.5342 43.5293ZM46.2539 29.6523C43.7207 27.2626 39.1915 26.9015 34.5762 30.6904L34.5752 30.6914C33.5561 31.5102 32.9745 32.4253 32.6826 33.3994C32.3902 34.3753 32.3868 35.4167 32.5332 36.4902C32.6797 37.5642 32.9747 38.6644 33.2773 39.7578C33.5715 40.8207 33.8714 41.8791 34.042 42.8896C34.9804 42.933 35.9178 43.0174 36.8486 43.0957C37.8065 43.1763 38.7583 43.2504 39.7041 43.2666C41.5857 43.2988 43.4377 43.1009 45.251 42.2783C45.4902 41.8633 45.7407 41.4488 45.9834 41.0469V41.042L46.0029 41.0156C49.37 36.5061 48.788 32.0431 46.2539 29.6523ZM22.9395 13.0371C22.706 13.0638 22.5071 13.1431 22.3398 13.2939C22.1715 13.4458 22.0279 13.6771 21.915 14.0195L21.9121 14.0283C21.5142 14.9673 21.2493 15.9984 20.9189 17.0039L20.918 17.0029C20.8035 17.3722 20.4475 17.4858 20.1514 17.4268C19.8819 17.3729 19.6239 17.1671 19.6162 16.8447C19.5676 16.8362 19.5163 16.8268 19.4629 16.8184C19.3958 16.8077 19.3259 16.7952 19.2588 16.7822C18.888 17.0754 18.7653 17.3827 18.7666 17.6709C18.7682 17.9744 18.9063 18.2729 19.0791 18.5254C19.697 19.4274 20.2171 20.355 20.7207 21.2842C21.2162 22.1984 21.6955 23.1123 22.2373 24.0117H22.2393L22.2676 24.0625C23.2673 25.8108 25.2263 26.7561 27.2061 26.8096C29.1852 26.863 31.1662 26.0247 32.2148 24.2275L32.2168 24.2236C32.6798 23.5031 33.091 22.7211 33.4902 21.9609C34.062 20.8714 34.6566 19.7373 35.4443 18.6963C35.5467 18.5609 35.733 18.3123 35.7588 17.9902C35.7833 17.684 35.6627 17.2864 35.1113 16.8398C35.0326 16.8575 34.9543 16.8692 34.877 16.876C34.8649 17.0427 34.793 17.1766 34.6836 17.2715C34.5564 17.3817 34.3862 17.4346 34.2207 17.4365C34.0552 17.4384 33.8838 17.3891 33.7539 17.2822C33.6213 17.173 33.5382 17.0079 33.5469 16.7959C33.5558 16.2816 33.3178 15.8129 33.0156 15.3311C32.718 14.8566 32.3527 14.3633 32.1553 13.8311V13.8301C32.0136 13.4759 31.6961 13.3567 31.3457 13.3447C30.9932 13.3327 30.634 13.4323 30.4658 13.4873L30.4648 13.4863C28.1897 14.3369 26.2409 13.7695 24.7666 13.3555C24.3971 13.2517 24.0598 13.1584 23.7529 13.0977C23.4457 13.0369 23.1749 13.0102 22.9395 13.0371ZM30.0352 6.75879C26.4225 5.69364 21.9748 6.63045 19.96 10.1289L19.9473 10.1514C19.5049 10.9242 19.364 11.8045 19.377 12.7393C19.3897 13.6527 19.5496 14.6106 19.7129 15.5635C19.7927 15.576 19.8766 15.5917 19.958 15.6084C20.4013 13.7926 20.9508 12.7606 21.6182 12.2266C22.3041 11.6776 23.0924 11.67 23.9473 11.835C24.3742 11.9174 24.8245 12.0441 25.291 12.1719C25.7592 12.3001 26.2463 12.4303 26.7539 12.5215C27.7675 12.7035 28.8594 12.73 30.0293 12.2803L30.0342 12.2783C30.8097 12.0249 31.5307 12 32.1201 12.1895C32.7115 12.3796 33.1654 12.7848 33.4014 13.3789L33.5322 13.6621C33.6757 13.941 33.8531 14.2095 34.0332 14.4883C34.2592 14.8381 34.4877 15.2031 34.6465 15.6094H34.7373C34.7795 15.6084 34.8038 15.6036 34.8223 15.5947C34.8557 15.5786 34.9079 15.5294 34.9697 15.3174V15.3154C35.6755 13.0866 35.3397 11.2168 34.3848 9.77148C33.4277 8.32311 31.8424 7.29165 30.0352 6.75879Z" fill="white" stroke="white" stroke-width="0.2"/>
<path d="M40.7812 29.6235C42.8324 29.6356 44.3226 30.3231 45.2793 31.3618C46.2348 32.3994 46.65 33.7781 46.5703 35.1567C46.4108 37.9147 44.2689 40.6893 40.4805 40.7847H40.4736C38.4953 40.6984 37.0749 39.9615 36.1738 38.896C35.2742 37.832 34.8994 36.4486 34.9932 35.0796C35.1807 32.3427 37.2459 29.6378 40.7803 29.6235H40.7812ZM44.9111 33.1646C44.1478 31.6802 42.3596 30.6443 39.9297 30.896C38.0449 31.5324 36.9857 32.6076 36.5361 33.7769C36.0848 34.9506 36.242 36.2341 36.8193 37.2935C37.3969 38.353 38.3915 39.182 39.6035 39.4497C40.8115 39.7164 42.2494 39.4282 43.7266 38.231C45.4256 36.6068 45.6741 34.6487 44.9111 33.1646Z" fill="white" stroke="white" stroke-width="0.2"/>
</svg>
