<svg width="60" height="60" viewBox="0 0 60 60" fill="none" xmlns="http://www.w3.org/2000/svg">
<path d="M38.1075 48.9346H24.2178" stroke="white" stroke-width="1.5" stroke-linecap="round" stroke-linejoin="round"/>
<path d="M23.8818 38.5664H37.0084C38.1436 38.5664 39.1948 39.1677 39.8012 40.1573L43.8464 46.7718C44.4527 47.763 45.504 48.3643 46.6392 48.3643H52.2185C52.8581 48.3643 53.4328 48.6314 53.8508 49.0623C54.2672 49.4949 54.5253 50.0913 54.5253 50.7516C54.5253 52.0705 53.493 53.1404 52.2169 53.1404H40.9981L35.1101 43.3769" stroke="white" stroke-width="1.5" stroke-linecap="round" stroke-linejoin="round"/>
<path d="M51.6583 39.4598C52.2875 37.1087 50.9559 34.675 48.684 34.0238C46.4122 33.3727 44.0604 34.7508 43.4312 37.1019C42.802 39.453 44.1337 41.8867 46.4055 42.5379C48.6774 43.189 51.0291 41.8109 51.6583 39.4598Z" stroke="white" stroke-width="1.5" stroke-linecap="round" stroke-linejoin="round"/>
<path d="M32.3661 12.3718C32.9076 9.99749 31.4867 7.61841 29.1924 7.05802C26.8981 6.49762 24.5992 7.96812 24.0576 10.3425C23.5161 12.7168 24.9371 15.0959 27.2314 15.6563C29.5257 16.2167 31.8246 14.7462 32.3661 12.3718Z" stroke="white" stroke-width="1.5" stroke-linecap="round" stroke-linejoin="round"/>
<path d="M21.895 21.9578V29.8502C21.895 30.5826 22.2354 31.2708 22.8085 31.6984L28.3182 35.8142C29.3298 36.5695 30.7294 36.4188 31.5685 35.4636C32.4884 34.4166 32.4045 32.7929 31.3801 31.8541L27.5519 28.3429V22.8442C27.5519 20.4423 26.1745 18.268 24.045 17.3096C21.4628 16.1479 18.4467 17.0638 16.8777 19.4838L7.19629 34.4346" stroke="white" stroke-width="1.5" stroke-linecap="round" stroke-linejoin="round"/>
<path d="M22.9952 31.8701L21.29 34.9373" stroke="white" stroke-width="1.5" stroke-linecap="round" stroke-linejoin="round"/>
<path d="M5.47559 36.751H21.0435C22.7977 36.751 24.2194 38.2223 24.2194 40.0377V53.9563" stroke="white" stroke-width="1.5" stroke-linecap="round" stroke-linejoin="round"/>
</svg>
