<svg width="60" height="60" viewBox="0 0 60 60" fill="none" xmlns="http://www.w3.org/2000/svg">
<path d="M51.1129 28.9858V40.1355C51.1129 43.8106 48.0826 46.7903 44.3452 46.7903H15.6554C11.918 46.7903 8.8877 43.8106 8.8877 40.1355V28.9858" stroke="white" stroke-width="1.5" stroke-linecap="round" stroke-linejoin="round"/>
<path d="M47.2285 25.8037H52.224C52.9621 25.8037 53.5587 26.3933 53.5587 27.1176V27.6738C53.5587 28.3996 52.9621 28.9862 52.224 28.9862H47.2757" stroke="white" stroke-width="1.5" stroke-linecap="round" stroke-linejoin="round"/>
<path d="M32.0975 28.9862H7.77854C7.04049 28.9862 6.44238 28.3996 6.44238 27.6738V27.1176C6.44238 26.3918 7.04196 25.8037 7.77854 25.8037H32.1431" stroke="white" stroke-width="1.5" stroke-linecap="round" stroke-linejoin="round"/>
<path d="M12.1036 25.6543V13.973C12.1036 13.973 12.0402 9.43457 16.1017 9.43457C18.8006 9.43457 19.5401 11.3742 19.7301 12.675" stroke="white" stroke-width="1.5" stroke-linecap="round" stroke-linejoin="round"/>
<path d="M20.7955 46.792V48.6404C20.7955 49.7051 19.9175 50.5655 18.8377 50.5655C17.7579 50.5655 16.8799 49.7051 16.8799 48.6404V46.792" stroke="white" stroke-width="1.5" stroke-linecap="round" stroke-linejoin="round"/>
<path d="M42.8932 46.792V48.6404C42.8932 49.7051 42.0152 50.5655 40.9354 50.5655C39.8555 50.5655 38.9775 49.7051 38.9775 48.6404V46.792" stroke="white" stroke-width="1.5" stroke-linecap="round" stroke-linejoin="round"/>
<path d="M43.971 23.7002H35.4016C34.4253 23.7002 33.6338 24.4785 33.6338 25.4385V33.8648C33.6338 34.8249 34.4253 35.6031 35.4016 35.6031H43.971C44.9473 35.6031 45.7388 34.8249 45.7388 33.8648V25.4385C45.7388 24.4785 44.9473 23.7002 43.971 23.7002Z" stroke="white" stroke-width="1.5" stroke-linecap="round" stroke-linejoin="round"/>
<path d="M26.1592 20.0091C26.1592 18.5069 28.254 18.5069 28.254 17.0062C28.254 15.5055 26.1592 15.504 26.1592 14.0004C26.1592 12.4968 28.254 12.4983 28.254 10.9946" stroke="white" stroke-width="1.5" stroke-linecap="round" stroke-linejoin="round"/>
<path d="M32.585 20.0091C32.585 18.5069 34.6798 18.5069 34.6798 17.0062C34.6798 15.5055 32.585 15.504 32.585 14.0004C32.585 12.4968 34.6798 12.4983 34.6798 10.9946" stroke="white" stroke-width="1.5" stroke-linecap="round" stroke-linejoin="round"/>
<path d="M39.0127 20.0091C39.0127 18.5069 41.1075 18.5069 41.1075 17.0062C41.1075 15.5055 39.0127 15.504 39.0127 14.0004C39.0127 12.4968 41.1075 12.4983 41.1075 10.9946" stroke="white" stroke-width="1.5" stroke-linecap="round" stroke-linejoin="round"/>
</svg>
