<svg width="60" height="60" viewBox="0 0 60 60" fill="none" xmlns="http://www.w3.org/2000/svg">
<path d="M26.5179 50.761H18.6815C17.4854 50.761 16.3832 50.1119 15.7995 49.0623C15.0007 47.6287 15.3681 45.8234 16.6622 44.819L25.345 38.0801V32.9922C25.345 32.0068 24.2224 31.4452 23.4399 32.041L16.4553 37.3531C15.6525 37.964 14.5462 37.9817 13.7257 37.3955C12.482 36.5085 12.4222 34.6759 13.6033 33.7083L19.3809 28.9757L22.2316 25.7942C24.2128 23.583 27.0363 22.3202 29.9986 22.3188C32.9609 22.3188 35.7844 23.5816 37.7656 25.7928L40.6177 28.9757L46.3954 33.7083C47.5778 34.6759 47.5166 36.5085 46.2729 37.3955C45.451 37.9817 44.3461 37.964 43.5433 37.3531L36.5587 32.041C35.7763 31.4452 34.6537 32.0068 34.6537 32.9922V38.0801L43.3378 44.819C44.6319 45.8234 44.9993 47.6274 44.2005 49.0623C43.6168 50.1105 42.5146 50.761 41.3185 50.761H27.2037C26.1206 50.761 25.1259 50.1638 24.6129 49.2072C23.6563 47.4237 24.7299 45.2235 26.7206 44.89L34.5924 43.5726" stroke="white" stroke-width="1.5" stroke-linecap="round" stroke-linejoin="round"/>
<path d="M34.6869 16.1694C35.298 13.569 33.6945 10.9634 31.1053 10.3496C28.5161 9.73586 25.9217 11.3464 25.3106 13.9468C24.6995 16.5472 26.3031 19.1528 28.8923 19.7666C31.4815 20.3803 34.0758 18.7698 34.6869 16.1694Z" stroke="white" stroke-width="1.5" stroke-linecap="round" stroke-linejoin="round"/>
</svg>
