<svg width="60" height="60" viewBox="0 0 60 60" fill="none" xmlns="http://www.w3.org/2000/svg">
<path d="M8.44141 40.8398H30.0001V51.5655H51.5588" stroke="white" stroke-width="1.5" stroke-linecap="round" stroke-linejoin="round"/>
<path d="M19.3841 19.7099L18.728 19.846C17.2158 20.1616 15.9508 21.1778 15.3359 22.5734L9.54025 35.7065C8.8886 37.1831 9.98743 38.832 11.6232 38.832C12.5249 38.832 13.3413 38.3065 13.7031 37.4944L18.3485 27.0582L21.2846 35.3981C22.0083 37.4538 23.9765 38.832 26.1859 38.832H34.7117L37.839 48.3329C38.1405 49.3593 39.0952 50.0658 40.1808 50.0658C41.7768 50.0658 42.9418 48.5805 42.5388 47.0604L39.7439 36.5548C39.2144 34.5628 37.4433 33.1311 35.3545 33.0052L28.4556 32.5911L24.8767 22.7283C24.3398 21.2473 23.085 20.1283 21.5361 19.7476C20.8315 19.5738 20.096 19.5608 19.387 19.7099H19.3841Z" stroke="white" stroke-width="1.5" stroke-linecap="round" stroke-linejoin="round"/>
<path d="M23.046 14.4171C23.9752 12.2093 22.9099 9.67811 20.6665 8.76359C18.423 7.84907 15.8511 8.89752 14.9218 11.1054C13.9926 13.3132 15.0579 15.8444 17.3013 16.7589C19.5448 17.6734 22.1167 16.625 23.046 14.4171Z" stroke="white" stroke-width="1.5" stroke-linecap="round" stroke-linejoin="round"/>
<path d="M33.0879 24.1401C33.0879 22.468 35.4194 22.468 35.4194 20.7945C35.4194 19.121 33.0879 19.1211 33.0879 17.4476C33.0879 15.7741 35.4194 15.7741 35.4194 14.1006" stroke="white" stroke-width="1.5" stroke-linecap="round" stroke-linejoin="round"/>
<path d="M40.2393 24.1401C40.2393 22.468 42.5708 22.468 42.5708 20.7945C42.5708 19.121 40.2393 19.1211 40.2393 17.4476C40.2393 15.7741 42.5708 15.7741 42.5708 14.1006" stroke="white" stroke-width="1.5" stroke-linecap="round" stroke-linejoin="round"/>
<path d="M47.3926 24.1401C47.3926 22.468 49.7241 22.468 49.7241 20.7945C49.7241 19.121 47.3926 19.1211 47.3926 17.4476C47.3926 15.7741 49.7241 15.7741 49.7241 14.1006" stroke="white" stroke-width="1.5" stroke-linecap="round" stroke-linejoin="round"/>
</svg>
