<svg width="60" height="60" viewBox="0 0 60 60" fill="none" xmlns="http://www.w3.org/2000/svg">
<path d="M22.2607 20.188C27.595 18.656 33.4758 18.7111 38.7041 20.3521L38.8135 20.4009C38.9161 20.4603 38.9981 20.5523 39.0469 20.6626C39.667 22.0485 39.9814 23.5475 39.9814 25.1147C39.9814 27.1755 39.4276 29.1555 38.3789 30.8413L38.3779 30.8403C36.6444 33.6895 33.7443 35.4333 30.5664 35.5493L30.5752 35.5591H30.2295C27.0346 35.559 24.0721 33.9032 22.2402 31.1235L22.0664 30.8511C21.0184 29.138 20.4658 27.1561 20.4658 25.1167C20.4659 23.5644 20.7799 22.0633 21.3975 20.6567L21.3984 20.6558C21.4647 20.5084 21.5885 20.3896 21.7461 20.3413L22.2607 20.188ZM38.1445 21.4009C33.0981 19.871 27.4227 19.8658 22.3066 21.3901C21.8236 22.5718 21.5782 23.8243 21.5781 25.1187C21.5781 26.9333 22.0691 28.6946 23.001 30.2173H23.002C24.6127 32.8321 27.3155 34.391 30.2295 34.3911C33.1436 34.3911 35.8526 32.8303 37.4473 30.2075L37.4482 30.2065C38.3797 28.7103 38.8711 26.9533 38.8711 25.1187C38.871 23.8115 38.6253 22.5635 38.1445 21.4009Z" fill="white" stroke="white" stroke-width="0.3"/>
<path d="M23.1963 34.7153C23.3895 34.7155 23.5616 34.8204 23.6621 34.9819L23.7012 35.0542V35.0552C24.8853 37.7581 27.4516 39.4985 30.2324 39.4985C33.0128 39.4984 35.5765 37.7586 36.7627 35.0562L36.8008 34.9829C36.9009 34.8196 37.076 34.7153 37.2686 34.7153H37.8096C44.5641 34.7155 50.0437 40.6034 50.0439 47.8159V51.5483C50.0437 51.8623 49.8048 52.1333 49.4873 52.1333H10.5166C10.1991 52.1333 9.96019 51.8623 9.95996 51.5483V47.8159C9.96016 40.6034 15.4338 34.7154 22.1846 34.7153H23.1963ZM22.1846 35.8862C16.0673 35.8863 11.0725 41.2272 11.0723 47.8159V50.9644H48.9297V47.8159C48.9295 41.2275 43.9309 35.8864 37.8076 35.8862H37.6123C36.1877 38.8001 33.3338 40.6693 30.2324 40.6694C27.131 40.6694 24.2743 38.8003 22.8496 35.8862H22.1846Z" fill="white" stroke="white" stroke-width="0.3"/>
<path d="M37.2373 34.7168C37.56 34.682 37.8071 34.9679 37.8223 35.2676L37.8418 35.8467C37.8632 36.8143 37.8625 38.8584 37.5889 41.1797C37.2251 44.266 36.3754 47.8808 34.4219 50.0918C33.2268 51.443 31.7387 52.1328 30.0029 52.1328H30.001C29.6834 52.1328 29.4443 51.862 29.4443 51.5479C29.4445 51.2338 29.6834 50.9629 30.001 50.9629C31.4134 50.9629 32.6233 50.405 33.6055 49.2959C34.4863 48.2991 35.1253 46.9391 35.5859 45.4473C36.0462 43.9568 36.3257 42.3446 36.4932 40.8525C36.8278 37.8706 36.714 35.3822 36.7119 35.3311L36.7129 35.3301C36.6985 35.0208 36.9165 34.7413 37.2275 34.7178V34.7168C37.2308 34.7164 37.2341 34.7162 37.2373 34.7158V34.7168Z" fill="white" stroke="white" stroke-width="0.3"/>
<path d="M22.9961 34.7168H22.998L22.9971 34.7178C23.3078 34.74 23.5302 35.0204 23.5146 35.332V35.3438C23.5144 35.3497 23.5141 35.3578 23.5137 35.3682C23.5128 35.3895 23.5111 35.42 23.5098 35.459C23.507 35.5372 23.5039 35.6507 23.501 35.7939C23.4951 36.0805 23.4907 36.4896 23.4971 36.9902C23.5099 37.9922 23.565 39.3608 23.7324 40.8525C23.8999 42.3447 24.1792 43.9569 24.6396 45.4473C25.1006 46.9392 25.7406 48.2996 26.6221 49.2959C27.6021 50.4049 28.8121 50.9629 30.2266 50.9629C30.5441 50.9629 30.7822 51.2337 30.7822 51.5479C30.7822 51.862 30.5441 52.1328 30.2266 52.1328C28.4907 52.1328 27.0027 51.4431 25.8076 50.0918C23.8539 47.8808 23.0047 44.2652 22.6406 41.1787C22.2756 38.0839 22.3951 35.4821 22.4053 35.2676L22.4219 35.1553C22.4835 34.9001 22.7054 34.6882 22.9902 34.7168V34.7158C22.9922 34.7159 22.9941 34.7167 22.9961 34.7168Z" fill="white" stroke="white" stroke-width="0.3"/>
<path d="M30.2305 7.86621C34.5246 7.86625 38.6618 8.79374 42.5654 10.6191H42.5645C42.8395 10.7472 42.9629 11.0799 42.8574 11.3652L39.2646 21.1777C39.1818 21.404 38.9751 21.5527 38.7461 21.5527C38.691 21.5527 38.6389 21.5428 38.5908 21.5293L38.5869 21.5283C38.5079 21.5034 38.4905 21.4964 38.4658 21.4922L38.4561 21.4902L38.4463 21.4873C35.7851 20.6581 33.04 20.2422 30.2305 20.2422C27.4207 20.2422 24.6847 20.6531 22.0596 21.4609L22.0605 21.4619L21.8535 21.5264H21.8516C21.5685 21.6105 21.2779 21.4552 21.1758 21.1758L17.583 11.3652L17.5537 11.2559C17.5105 10.9994 17.6353 10.7329 17.874 10.6191H17.875C21.7788 8.79366 25.9364 7.86621 30.2305 7.86621ZM30.2305 9.03516C26.281 9.03516 22.4314 9.85203 18.8105 11.4668L22.0273 20.2559C24.6685 19.4705 27.4273 19.0723 30.2285 19.0723H30.293L30.2949 19.0742C33.0847 19.0803 35.8109 19.4806 38.4082 20.2617L41.6279 11.4668C38.0099 9.8525 34.1792 9.03519 30.2305 9.03516Z" fill="white" stroke="white" stroke-width="0.3"/>
<path d="M30.2266 12.2744C30.5441 12.2745 30.7822 12.5462 30.7822 12.8604V16.5703C30.7821 16.8843 30.544 17.1552 30.2266 17.1553C29.909 17.1553 29.6701 16.8844 29.6699 16.5703V12.8604C29.6699 12.5462 29.9089 12.2744 30.2266 12.2744Z" fill="white" stroke="white" stroke-width="0.3"/>
<path d="M31.9551 14.1294C32.2726 14.1295 32.5107 14.4012 32.5107 14.7153C32.5106 15.0293 32.2725 15.3002 31.9551 15.3003H28.4932C28.1757 15.3003 27.9367 15.0294 27.9365 14.7153C27.9365 14.4011 28.1755 14.1294 28.4932 14.1294H31.9551Z" fill="white" stroke="white" stroke-width="0.3"/>
</svg>
