<svg width="24" height="24" viewBox="0 0 24 24" fill="none" xmlns="http://www.w3.org/2000/svg">
<path d="M14.6713 10.3282C14.8467 8.8529 13.793 7.51477 12.3178 7.33937C10.8425 7.16398 9.50443 8.21774 9.32904 9.69302C9.15366 11.1683 10.2074 12.5064 11.6826 12.6818C13.1578 12.8572 14.4959 11.8035 14.6713 10.3282Z" fill="#A28362"/>
<path d="M12.0001 0C5.37255 0 0 5.37273 0 12.0005C0 18.6284 5.37255 24.0011 12.0001 24.0011C18.6277 24.0011 24.0003 18.6284 24.0003 12.0005C24.0003 5.37273 18.6269 0 12.0001 0ZM12.0001 18.9399C12.0001 18.9399 7.05029 12.7438 7.05029 10.0104C7.05029 7.27702 9.26685 5.06039 12.0001 5.06039C14.7334 5.06039 16.95 7.27702 16.95 10.0104C16.95 12.7438 12.0001 18.9399 12.0001 18.9399Z" fill="#A28362"/>
</svg>
