<svg width="24" height="24" viewBox="0 0 24 24" fill="none" xmlns="http://www.w3.org/2000/svg">
<path d="M12 0C5.37249 0 0 5.37249 0 12C0 18.6275 5.37249 24 12 24C18.6275 24 24 18.6275 24 12C24 5.37249 18.6267 0 12 0ZM16.4649 17.8549C14.6556 19.1034 13.0743 18.4419 11.8602 17.8058C10.5373 17.1125 8.3314 14.1658 7.90788 13.3196C7.48436 12.4726 6.12387 9.96334 6.7289 8.10329C7.33392 6.24324 8.72222 5.55236 9.11794 5.45752C9.4924 5.36758 10.4089 5.62186 10.5692 5.97179C10.8365 6.55475 11.0401 8.88901 10.9625 9.66083C10.9322 9.96007 10.31 10.3272 9.87341 10.5496C9.62158 10.6779 9.50221 10.9731 9.5946 11.2404C10.1669 12.9002 11.4612 14.1438 12.2044 14.7529C12.502 14.9965 12.9288 14.9957 13.2256 14.7512C13.4014 14.6065 13.5902 14.4667 13.726 14.407C14.0579 14.2615 14.3498 14.3024 14.5436 14.367C15.2287 14.5934 16.6366 15.3129 17.1305 15.6482C17.357 15.8019 17.908 16.859 16.4649 17.8549Z" fill="#A28362"/>
</svg>
