<svg width="20" height="20" viewBox="0 0 20 20" fill="none" xmlns="http://www.w3.org/2000/svg">
<g clip-path="url(#clip0_851_10288)">
<path d="M9.99982 12.1872C8.72192 12.1872 7.68164 13.2063 7.68164 14.4581V19H12.318V14.4581C12.318 13.2063 11.2777 12.1872 9.99982 12.1872Z" fill="white"/>
<path d="M17.5109 5.81508L10.8867 1.27321C10.3574 0.907969 9.64358 0.908915 9.11426 1.27321L2.48812 5.81508C1.86994 6.23994 1.5 6.93635 1.5 7.6763V15.9718C1.5 17.6419 2.88608 18.9998 4.59091 18.9998H6.13636V14.4579C6.13636 12.3715 7.87017 10.673 10 10.673C12.1298 10.673 13.8636 12.3715 13.8636 14.4579V18.9998H15.4091C17.1139 18.9998 18.5 17.6419 18.5 15.9718V7.6763C18.5 6.93635 18.1301 6.24088 17.5109 5.81603V5.81508ZM10.7727 7.64508H9.22727C8.80034 7.64508 8.45455 7.30633 8.45455 6.8881C8.45455 6.46987 8.80034 6.13112 9.22727 6.13112H10.7727C11.1997 6.13112 11.5455 6.46987 11.5455 6.8881C11.5455 7.30633 11.1997 7.64508 10.7727 7.64508Z" fill="white"/>
</g>
<defs>
<clipPath id="clip0_851_10288">
<rect width="17" height="18" fill="white" transform="translate(1.5 1)"/>
</clipPath>
</defs>
</svg>
