<svg width="40" height="40" viewBox="0 0 40 40" fill="none" xmlns="http://www.w3.org/2000/svg">
<path fill-rule="evenodd" clip-rule="evenodd" d="M9.33301 17.6665C10.4375 17.6665 11.3328 18.5621 11.333 19.6665V20.3335C11.333 21.4381 10.4376 22.3335 9.33301 22.3335H8.66699C7.56242 22.3335 6.66699 21.4381 6.66699 20.3335V19.6665C6.66717 18.5621 7.56253 17.6665 8.66699 17.6665H9.33301ZM20.3359 17.6665C21.4404 17.6665 22.3358 18.5621 22.3359 19.6665V20.3335C22.3359 21.4381 21.4405 22.3335 20.3359 22.3335H19.6689C18.5645 22.3333 17.6689 21.438 17.6689 20.3335V19.6665C17.6691 18.5622 18.5646 17.6667 19.6689 17.6665H20.3359ZM31.332 17.6665C32.4365 17.6665 33.3319 18.5621 33.332 19.6665V20.3335C33.332 21.4381 32.4366 22.3335 31.332 22.3335H30.665C29.5606 22.3333 28.665 21.438 28.665 20.3335V19.6665C28.6652 18.5622 29.5607 17.6667 30.665 17.6665H31.332Z" fill="white"/>
</svg>
