<svg width="20" height="20" viewBox="0 0 20 20" fill="none" xmlns="http://www.w3.org/2000/svg">
<g clip-path="url(#clip0_851_10294)">
<path d="M17.681 11.7616L13.7079 16.3966L11.2807 13.9694C10.9882 13.6769 10.5129 13.6769 10.2204 13.9694C9.92785 14.2619 9.92785 14.7372 10.2204 15.0297L13.2204 18.0297C13.2279 18.0372 13.2372 18.0391 13.2447 18.0456C13.2522 18.0522 13.255 18.0616 13.2625 18.0681C13.3047 18.1038 13.3535 18.1235 13.4004 18.1488C13.4285 18.1638 13.4529 18.1853 13.4819 18.1966C13.5682 18.2303 13.6591 18.2491 13.75 18.2491C13.8504 18.2491 13.9507 18.2266 14.0444 18.1863C14.0754 18.1731 14.0997 18.1478 14.1288 18.13C14.1804 18.0991 14.2357 18.0747 14.2797 18.0297C14.2872 18.0222 14.29 18.0119 14.2966 18.0035C14.3032 17.9969 14.3125 17.9941 14.3182 17.9875L18.8182 12.7375C19.0882 12.4225 19.0516 11.9491 18.7366 11.68C18.4235 11.411 17.9491 11.4466 17.68 11.7616H17.681Z" fill="white"/>
<path d="M12.25 1H4.75C2.68281 1 1 2.68281 1 4.75V15.25C1 17.3172 2.68281 19 4.75 19H12.0681L9.15906 16.0909C8.73437 15.6663 8.5 15.1009 8.5 14.5C8.5 13.8991 8.73437 13.3337 9.15906 12.9091C9.58375 12.4844 10.1491 12.25 10.75 12.25C11.3509 12.25 11.9163 12.4844 12.3409 12.9091L13.6234 14.1916L16 11.4184V4.75C16 2.68281 14.3172 1 12.25 1ZM9.25 10H5.5C5.08562 10 4.75 9.66438 4.75 9.25C4.75 8.83562 5.08562 8.5 5.5 8.5H9.25C9.66438 8.5 10 8.83562 10 9.25C10 9.66438 9.66438 10 9.25 10ZM10 6.25H5.5C5.08562 6.25 4.75 5.91438 4.75 5.5C4.75 5.08562 5.08562 4.75 5.5 4.75H10C10.4144 4.75 10.75 5.08562 10.75 5.5C10.75 5.91438 10.4144 6.25 10 6.25Z" fill="white"/>
</g>
<defs>
<clipPath id="clip0_851_10294">
<rect width="18" height="18" fill="white" transform="translate(1 1)"/>
</clipPath>
</defs>
</svg>
