<svg width="20" height="20" viewBox="0 0 20 20" fill="none" xmlns="http://www.w3.org/2000/svg">
<g clip-path="url(#clip0_851_10300)">
<path d="M6.54151 1V4C6.54151 5.24313 5.47774 6.25 4.16658 6.25H1L6.54151 1Z" fill="white"/>
<path d="M10.8009 13.8897L16.8332 8.17468V11.3566L12.4841 15.4769C12.4327 15.5266 12.3664 15.5612 12.2951 15.5772L10.8316 15.9016C10.6376 15.9447 10.508 15.8462 10.4615 15.8012C10.415 15.7572 10.311 15.6344 10.3556 15.4516L10.696 14.0697C10.7128 14.0012 10.7494 13.9394 10.8009 13.8897Z" fill="white"/>
<path d="M9.19945 15.1956C9.07378 15.7047 9.23211 16.2287 9.62199 16.5972C9.9238 16.8831 10.3226 17.0369 10.7372 17.0369C10.8579 17.0369 10.9806 17.0238 11.1014 16.9966L12.5649 16.6722C12.8529 16.6084 13.1151 16.4706 13.3239 16.2728L16.8329 12.9484V16.75C16.8329 17.9931 15.7691 19 14.4579 19H3.37493C2.06278 19 1 17.9931 1 16.75V7.375H4.16658C6.13084 7.375 7.72897 5.86094 7.72897 4V1H14.4579C15.7691 1 16.8329 2.00781 16.8329 3.25V6.78906C16.5786 6.89687 16.3411 7.04969 16.1333 7.2475L9.96141 13.0947C9.75162 13.2925 9.60616 13.5419 9.53887 13.8147L9.19945 15.1956Z" fill="white"/>
<path d="M6.54151 1V4C6.54151 5.24313 5.47774 6.25 4.16658 6.25H1L6.54151 1Z" fill="white"/>
<path d="M19.0003 8.83844C19.0003 9.13844 18.8766 9.42063 18.652 9.63344L12.4841 15.4769C12.4327 15.5266 12.3664 15.5613 12.2951 15.5772L10.8316 15.9016C10.6376 15.9447 10.508 15.8463 10.4615 15.8013C10.415 15.7572 10.311 15.6344 10.3556 15.4516L10.696 14.0697C10.7128 14.0013 10.7494 13.9394 10.8009 13.8897L16.9727 8.0425C17.4358 7.60375 18.1899 7.60375 18.652 8.0425C18.8766 8.25531 19.0003 8.5375 19.0003 8.83844Z" fill="white"/>
</g>
<defs>
<clipPath id="clip0_851_10300">
<rect width="18" height="18" fill="white" transform="translate(1 1)"/>
</clipPath>
</defs>
</svg>
