<svg width="30" height="30" viewBox="0 0 30 30" fill="none" xmlns="http://www.w3.org/2000/svg">
<path fill-rule="evenodd" clip-rule="evenodd" d="M23.288 5.2935C23.6785 4.90305 24.3116 4.90301 24.7021 5.2935C25.0925 5.684 25.0925 6.31705 24.7021 6.70756L16.4111 14.9976L24.707 23.2945C25.0974 23.685 25.0974 24.318 24.707 24.7085C24.3164 25.099 23.6834 25.099 23.2929 24.7085L14.997 16.4126L6.70207 24.7085C6.31156 25.0991 5.67855 25.099 5.28801 24.7085C4.89747 24.318 4.8975 23.685 5.28801 23.2945L13.5829 14.9976L5.29289 6.70756C4.90238 6.31702 4.90236 5.68401 5.29289 5.2935C5.68343 4.90303 6.31646 4.90298 6.70696 5.2935L14.997 13.5835L23.288 5.2935Z" fill="white"/>
</svg>
